<svg xmlns="http://www.w3.org/2000/svg" viewBox="0 0 24 24" width="24" height="24">
  <path fill-rule="evenodd" d="M11.6 1.2c.2-.3.6-.3.8 0l10.4 10.4c.3.2.3.6 0 .8L12.4 22.8c-.2.3-.6.3-.8 0L1.2 12.4a.6.6 0 0 1 0-.8L11.6 1.2Zm-2.3 4 2.1 2.2a1.8 1.8 0 0 1 2.3 2l2.4 1.4a1.8 1.8 0 0 1 3 1.2 1.8 1.8 0 1 1-3.5 0l-2.4-1.5c-.2 0-.3.2-.5.3v4.5a1.8 1.8 0 1 1-1.2-.1v-4.4a1.8 1.8 0 0 1-1-2.6L8.5 6l-6 6 9.5 9.6 9.6-9.6L12 2.4 9.3 5.2ZM12 10a1 1 0 1 0 0-2 1 1 0 0 0 0 2Zm6.3 1.9a1 1 0 1 1-1.8 0 1 1 0 0 1 1.8 0ZM12 17.8a1 1 0 1 0 0-1.8 1 1 0 0 0 0 1.8Z" clip-rule="evenodd" fill="currentColor"></path>
</svg>
